<?xml version="1.0" encoding="UTF-8"?>
<svg width="100mm" height="120mm" version="1.1" viewBox="0 0 100 120" xmlns="http://www.w3.org/2000/svg">
<path d="m95.087 116.64c-2.5675-5.404-4.4762-11.241-5.3216-16.274-0.18641-1.1098-0.36633-2.0452-0.39982-2.0787-0.14851-0.14851-0.25097 7.8028-0.16806 13.043l0.09099 5.7511-0.30245-0.47631c-0.46377-0.73037-2.8561-5.5682-3.7349-7.5528-2.2435-5.0665-3.8134-9.9355-4.4755-13.881-0.36759-2.1904-0.89699-8.911-0.89999-11.425-1.36e-4 -0.15314-0.6028 0.732-1.3392 1.967-2.4691 4.1411-5.447 8.7096-5.6772 8.7096-0.03521 0 0.17341-0.38274 0.4636-0.85054 1.4362-2.3153 3.4005-6.237 5.3781-10.737 1.3697-3.1169 1.583-4.1322 0.4818-2.2933-4.0804 6.8138-9.5669 13.016-16.233 18.35-3.2422 2.5943-7.2095 5.2189-10.648 7.0442l-1.4802 0.78576 2.3874-2.5091c13.034-13.699 21.217-25.71 25.998-38.164l0.7837-2.0413 0.81851-0.08053c1.3095-0.12885 1.7962-0.59078 2.7365-2.5974 1.2151-2.593 2.5842-8.7638 2.9844-13.451 0.14574-1.7072 0.3873-2.4441 1.087-3.3158l0.42463-0.52904v-2.2101c0-1.605-0.04657-2.2472-0.17011-2.3457-0.38302-0.30545-9.9502-1.3893-12.298-1.3932-0.77059-0.0014-0.91246-0.05322-1.8911-0.69211l-1.0581-0.69071 0.09235 0.7858c0.0508 0.43219 0.1057 0.79908 0.12201 0.81532 0.01631 0.01623 1.1932 0.0963 2.6153 0.17793 2.9881 0.17152 5.7298 0.43467 9.4124 0.90343 1.4344 0.18259 2.6439 0.33198 2.6877 0.33198 0.0438 0 0.07964 0.96915 0.07964 2.1537 0 2.0972-0.0086 2.1617-0.32649 2.4604-0.62104 0.58344-1.0501 1.8147-1.1826 3.3936-0.49024 5.8421-2.1737 12.623-3.6756 14.806-0.74198 1.0784-0.48083 1.0437-7.3392 0.97645l-6.074-0.05955-0.38381 1.437c-3.2814 12.286-9.0345 25.562-14.6 33.69-1.0685 1.5606-2.6106 3.5228-2.6991 3.4344-0.02816-0.0282 0.28971-0.65931 0.70637-1.4026 3.728-6.65 8.5055-18.086 11.935-28.569 0.95273-2.9123 2.6819-8.6752 2.6819-8.9381 0-0.0376-0.35212-0.14663-0.7825-0.24229-4.2615-0.94715-7.0209-3.4861-8.4944-7.8159-0.61671-1.8121-1.0042-3.6266-1.2165-5.6962-0.2069-2.0168-0.34096-2.5201-0.79126-2.9704-0.49817-0.49817-1.3405-0.70756-2.5912-0.64416-1.1899 0.06032-1.966 0.38008-2.3149 0.9538-0.15128 0.24877-0.29285 0.94421-0.39271 1.9291-0.83771 8.2629-3.5045 12.457-8.9177 14.026-2.3785 0.68926-3.5102 0.78516-10.098 0.85576-5.4992 0.05892-6.1816 0.04261-6.5676-0.15699-0.5125-0.26502-1.2424-1.3219-1.7118-2.4786-1.1822-2.9131-2.4102-8.7055-2.786-13.142-0.13063-1.5419-0.45268-2.4903-1.161-3.419-0.33844-0.44372-0.34865-0.51708-0.34865-2.5044v-2.0473l0.44228-0.0807c0.88092-0.16074 6.0105-0.76578 8.4371-0.99518 1.7687-0.1672 3.7966-0.23566 7.0428-0.23776 5.1941-0.0033 6.0226 0.07943 10.862 1.0854 6.4317 1.3368 9.2314 1.3497 15.372 0.07074 3.11-0.64772 4.8852-0.92102 7.0894-1.0914 0.92605-0.07159 1.7121-0.15854 1.7468-0.19322 0.09049-0.09049-0.5813-3.6197-0.9453-4.966l-0.30782-1.1386-2.3964-0.72652c-5.7685-1.7489-10.15-3.5842-12.136-5.0835l-0.75309-0.56859-1.135 0.91651c-4.185 3.3794-12.145 7.0374-20.541 9.4399l-1.5791 0.45182-0.61697 0.77103-0.61697 0.77103-1.8964 0.16615c-3.1431 0.27538-8.0683 0.93678-8.2792 1.1118-0.15802 0.13115-0.1977 0.60761-0.1977 2.3741v2.2101l0.42463 0.52904c0.70057 0.87282 0.94137 1.6082 1.0858 3.3158 0.16124 1.9067 0.55504 4.4515 1.0907 7.048 1.1141 5.4006 2.5981 8.6718 4.0674 8.9657 0.43558 0.08712 0.36585-0.36843 0.68427 4.4704 0.58344 8.8664 1.6954 14.281 3.2437 15.795l0.41173 0.40254-0.52074 1.854c-0.76065 2.7082-2.0877 6.4348-3.7245 10.459-1.0142 2.4935-1.317 3.1781-1.378 3.1152-0.02844-0.02931 0.03083-0.52587 0.13171-1.1035 0.60127-3.4424 1.016-8.5055 0.78329-9.5628l-0.1194-0.54254-0.42512 1.223c-0.23382 0.67264-0.92814 2.6927-1.543 4.4891-2.4803 7.2468-4.5831 11.606-6.4656 13.405-0.56003 0.53491-0.62958 0.56935-0.54975 0.27217 4.7703-17.758 6.7296-34.24 5.379-45.249-0.16224-1.3225-0.77089-4.3825-0.92729-4.662-0.05278-0.0943-0.19886 0.88545-0.32463 2.1772-1.2031 12.357-3.759 24.577-6.8972 32.975-0.6126 1.6395-1.8121 4.4246-1.8775 4.3592-0.02278-0.02278 0.22766-0.80018 0.55653-1.7276 1.7878-5.0413 3.6832-13.291 5.1241-22.303 0.71415-4.4666 1.0591-7.1238 1.1484-8.8457l0.07405-1.4289-0.3974 2.2454c-2.3368 13.204-6.7535 26.591-12.676 38.421-1.4875 2.9713-3.4746 6.3519-3.7336 6.3519-0.06507 0 0.209-0.72241 0.98096-2.5856 0.56386-1.361 1.1512-2.9536 2.158-5.8518 3.3352-9.6008 5.7945-20.532 7.4095-32.933 0.6564-5.0405 0.89072-7.2895 1.7724-17.011 1.0751-11.854 1.3167-13.33 3.0964-18.916 0.60812-1.9086 1.4193-4.5113 1.8026-5.7837 1.2142-4.0308 2.4495-6.1292 4.708-7.9973 2.4919-2.0612 7.8594-4.2842 12.516-5.1836 2.8677-0.55388 4.3103-0.68374 7.542-0.6789 3.3768 0.0051 5.5434 0.22321 8.1652 0.82218 1.8036 0.41204 1.7373 0.40905 2.7217 0.12285 2.8499-0.82858 7.9537-1.1404 11.441-0.69908 2.3062 0.2919 5.4541 1.0886 7.5533 1.9117 5.3495 2.0974 10.192 5.693 12.645 9.3888 0.73402 1.1058 2.325 4.3908 2.9659 6.1239 2.0784 5.6199 3.5207 13.734 4.1848 23.543 0.07602 1.1227 0.1949 6.818 0.26417 12.656 0.14135 11.912 0.31745 15.977 1.0317 23.815 0.64655 7.0955 2.0026 15.36 3.4712 21.156 0.36906 1.4564 0.67102 2.6779 0.67102 2.7144 0 0.0365-0.21946-0.14466-0.48769-0.40259-0.67866-0.65263-1.9967-2.6536-2.7926-4.2397-0.3678-0.73292-0.69726-1.3326-0.73213-1.3326-0.15131 0 0.92436 4.6345 1.7171 7.398 0.29762 1.0375 0.5167 1.9108 0.48685 1.9407-0.02985 0.0299-0.45466-0.78842-0.944-1.8184zm-16.58-56.653c0.75973-0.07796 1.5295-0.19808 1.7106-0.26692 1.2629-0.48017 2.845-8.3113 2.6101-12.92-0.13545-2.6574-0.42274-3.1824-1.8627-3.4036-1.0302-0.15825-5.148-0.40987-6.7547-0.41273l-1.107-2e-3 -0.09212 0.7825c-0.34822 2.9581-1.7904 10.764-2.6678 14.44-0.22078 0.92494-0.40143 1.7029-0.40143 1.7289 0 0.18387 6.877 0.22719 8.5651 0.05396zm-40.278-0.32769c2.1975-0.2782 3.8651-0.67908 4.5885-1.103 1.4372-0.84226 3.1906-4.3898 4.0089-8.111 0.40488-1.8412 0.44356-4.492 0.07931-5.4357-0.47508-1.2309-1.0498-1.4689-4.3014-1.7816-2.5479-0.24499-14.611-0.24277-16.687 0.0031-1.7275 0.2046-2.0689 0.33638-2.4161 0.93267-1.0583 1.8175-0.17276 10.918 1.4044 14.433 0.42509 0.9474 0.5999 1.0674 1.8282 1.2554 1.2853 0.19665 9.5085 0.05887 11.495-0.1926zm29.492-0.6873c0.09721-0.37424 0.41941-1.8746 0.71601-3.3341 0.91669-4.511 1.3689-8.1697 1.3691-11.077l1.15e-4 -1.6185-2.4155 0.09374c-4.1773 0.16211-6.7869 0.4512-7.5268 0.83384-1.4224 0.73557-1.5977 4.1027-0.42487 8.1611 0.75519 2.6132 1.7226 4.6563 2.7657 5.8414 0.80704 0.91685 1.5223 1.2265 3.7911 1.6412 1.471 0.26888 1.5184 0.25398 1.7252-0.54217z" stroke-width=".13609"/>
</svg>
