<?xml version="1.0" encoding="UTF-8"?>
<svg width="100" height="97.54" version="1.1" viewBox="0 0 100 97.540001" xml:space="preserve" xmlns="http://www.w3.org/2000/svg"><path d="m50.005 0c27.61 0 49.995 22.386 49.995 50.002 0 22.091-14.325 40.83-34.194 47.445-2.5016 0.45735-3.4132-1.0866-3.4132-2.4126 0-1.1848 0.04297-4.331 0.06754-8.5024 13.908 3.0204 16.842-6.7037 16.842-6.7037 2.2745-5.7767 5.5527-7.3145 5.5527-7.3145 4.5397-3.1002-0.34378-3.0388-0.34378-3.0388-5.0186 0.35299-7.6583 5.1536-7.6583 5.1536-4.4599 7.6399-11.704 5.4329-14.552 4.153-0.45428-3.2291-1.7435-5.4329-3.1738-6.6822 11.102-1.2615 22.775-5.5527 22.775-24.712 0-5.4575-1.9491-9.9205-5.1475-13.417 0.51567-1.2646 2.2315-6.3476-0.48804-13.232 0 0-4.199-1.3444-13.751 5.126-3.9872-1.1111-8.2661-1.6636-12.517-1.6821-4.2451 0.01842-8.5239 0.57092-12.517 1.6821-9.546-6.4704-13.736-5.126-13.736-5.126-2.7288 6.8848-1.0129 11.968-0.49725 13.232-3.2045 3.4961-5.1413 7.9591-5.1413 13.417 0 19.209 11.692 23.435 22.831 24.672-1.7956 1.5439-3.3948 4.595-3.3948 9.2606 0 6.6822 0.06139 12.075 0.06139 13.714 0 1.3383-0.89936 2.8945-3.4378 2.4065-19.853-6.627-34.166-25.354-34.166-47.439 0-27.616 22.389-50.002 50.005-50.002" fill-rule="evenodd"/></svg>
