<?xml version="1.0" encoding="UTF-8"?>
<svg width="80mm" height="97mm" version="1.1" viewBox="0 0 80 97" xmlns="http://www.w3.org/2000/svg">
<path d="m29.51 96.648c-11.066-0.50853-19.375-2.0002-24.001-4.3086-2.202-1.0988-4.0257-2.7054-4.7482-4.1829-0.28673-0.58631-0.36831-1.0125-0.37264-1.9468-3e-3 -0.65789 0.06768-1.2694 0.15716-1.3589 0.11192-0.11192 0.54828-0.11496 1.3981-0.0097 2.1166 0.2621 9.1296 0.91151 13.352 1.2364 26.412 2.0323 48.218 1.4607 61.975-1.6246 2.0832-0.46723 2.1915-0.43685 2.169 0.60868-0.04251 1.9787-2.3715 4.3489-6.1218 6.2303-5.4663 2.7422-13.539 4.4316-24.855 5.2015-3.2334 0.21996-15.374 0.319-18.952 0.15458zm42.238-12.65c-0.03728-0.03728-1.0451-0.32047-2.2396-0.6293-7.3536-1.9013-15.533-2.3548-23.687-1.3135-2.1843 0.27893-5.4221 0.81952-6.0904 1.0169-0.20096 0.05934-0.075-0.32447 0.5215-1.589 1.0534-2.2333 2.556-6.1063 3.5483-9.1458 3.3178-10.164 5.1824-21.147 5.5393-32.63l0.10279-3.3073 1.4904 1.1812c2.4385 1.9327 3.5489 2.9721 5.1008 4.7748 2.5664 2.9811 4.4525 5.8523 6.48 9.8645 3.9265 7.77 6.9243 17.357 9.0111 28.817 0.21781 1.1962 0.43619 2.3671 0.48528 2.602 0.07795 0.37308-0.0597 0.56183-0.26212 0.35942zm-64.608-2.0082c0-0.1348 1.2787-2.7812 2.8416-5.8809 5.3187-10.549 8.4297-17.765 12.048-27.947 4.5184-12.715 8.8541-29.03 11.616-43.711 0.40183-2.136 0.78395-3.9449 0.84916-4.0197 0.22478-0.25791 2.7661 5.198 4.6943 10.078 3.54 8.9595 6.1645 18.612 7.814 28.739 0.50794 3.1185 0.54599 5.3971 0.15175 9.0877-1.1649 10.905-3.6748 21.259-7.2678 29.982-0.53499 1.2988-0.7407 1.641-1.0097 1.6795-0.18581 0.0266-1.5131-0.23432-2.9496-0.57982-4.8914-1.1765-6.0343-1.3237-10.301-1.327-2.9065-0.0022-4.2098 0.06211-5.5148 0.27219-4.4257 0.7125-7.9335 1.7531-12.777 3.7904-0.1078 0.04534-0.19418-0.02735-0.19418-0.16342z" stroke-width=".15535"/>
</svg>
