<?xml version="1.0" encoding="UTF-8"?>
<svg width="100mm" height="100mm" version="1.1" viewBox="0 0 100 100" xmlns="http://www.w3.org/2000/svg">
<g transform="matrix(.28516 0 0 .28516 21.064 11.412)" stroke-width=".35278">
<path d="m-26.322 195.21c0.53624-0.0811 1.33-0.0789 1.7639 5e-3 0.4339 0.0837-0.0048 0.15008-0.97499 0.14743-0.97014-3e-3 -1.3251-0.0712-0.7889-0.15224zm-6.8408-105.49c-0.43881-0.55953-0.42633-0.572 0.13319-0.13319 0.33955 0.26629 0.61736 0.54411 0.61736 0.61736 0 0.29035-0.2897 0.10347-0.75056-0.48417z"/>
<path d="m27.56 68.003c0-0.06071 0.51594-0.57665 1.1465-1.1465l1.1465-1.0361-1.0361 1.1465c-0.96583 1.0687-1.2569 1.3087-1.2569 1.0361z"/>
<path d="m196.57 132.82c0.0169-0.41097 0.10052-0.49456 0.21314-0.21314 0.1019 0.25466 0.0894 0.55894-0.0278 0.67616-0.11722 0.11723-0.2006-0.0911-0.18528-0.46302zm-228.67-42.039c-0.43881-0.55953-0.42633-0.572 0.1332-0.1332 0.33955 0.26629 0.61736 0.54411 0.61736 0.61736 0 0.29035-0.2897 0.10347-0.75056-0.48417zm115.19-15.699-0.67204-0.79375 0.79375 0.67204c0.43656 0.36962 0.79375 0.72681 0.79375 0.79375 0 0.28231-0.28391 0.07389-0.91546-0.67204zm-109.22-4.3861c0.25466-0.10191 0.55893-0.08938 0.67616 0.02783 0.11722 0.11722-0.09114 0.2006-0.46302 0.18529-0.41097-0.01693-0.49456-0.10052-0.21314-0.21313z"/>
<path d="m171.76 308.12c0.24254-0.0979 0.63941-0.0979 0.88195 0 0.24253 0.0979 0.0441 0.17794-0.44097 0.17794s-0.68351-0.0801-0.44098-0.17794zm-137.47-296.31c0.01693-0.41097 0.10052-0.49456 0.21313-0.21314 0.10191 0.25466 0.08938 0.55893-0.02783 0.67616-0.11722 0.11722-0.2006-0.09114-0.18529-0.46302z"/>
<path d="m-34.761 134.61c0.0014-1.5522 0.0633-2.1433 0.13783-1.3136 0.07452 0.82975 0.07347 2.0998-0.0025 2.8222-0.0758 0.72247-0.13678 0.0436-0.1355-1.5086zm202.35-69.938-0.85524-0.97014 0.97014 0.85524c0.53358 0.47039 0.97014 0.90695 0.97014 0.97014 0 0.27668-0.28568 0.0515-1.085-0.85524z"/>
<path d="m224.32 194.86c0.43656-0.0841 1.1509-0.0841 1.5875 0s0.0794 0.15288-0.79375 0.15288c-0.87313 0-1.2303-0.0688-0.79375-0.15288zm-61.736-46.919c0.43657-0.0841 1.1509-0.0841 1.5875 0 0.43657 0.0841 0.0794 0.15289-0.79375 0.15289-0.87312 0-1.2303-0.0688-0.79375-0.15289zm-161.46-12.657c0.016933-0.41097 0.10052-0.49456 0.21313-0.21314 0.10191 0.25466 0.089376 0.55893-0.027834 0.67616-0.11723 0.11722-0.2006-0.0911-0.18529-0.46302z"/>
<path d="m1.1294 136.35c0.016933-0.41097 0.10052-0.49456 0.21313-0.21314 0.10191 0.25466 0.089376 0.55893-0.027834 0.67616-0.11723 0.11722-0.2006-0.0911-0.18529-0.46302z"/>
<path d="m4.078 229.95-1.0361-1.1465 1.1465 1.0361c1.0687 0.96582 1.3087 1.2569 1.0361 1.2569-0.060713 0-0.57665-0.51594-1.1465-1.1465z"/>
<path d="m5.6427 231.54c-0.43881-0.55952-0.42633-0.572 0.13319-0.13319 0.33955 0.26629 0.61736 0.54411 0.61736 0.61736 0 0.29035-0.2897 0.10347-0.75056-0.48417zm24.177-28.046-0.67204-0.79375 0.79375 0.67204c0.74593 0.63155 0.95435 0.91546 0.67204 0.91546-0.06694 0-0.42413-0.35718-0.79375-0.79375zm113.74-40.369c0.25466-0.10191 0.55894-0.0894 0.67616 0.0278 0.11723 0.11723-0.0911 0.20061-0.46302 0.18529-0.41097-0.0169-0.49456-0.10052-0.21314-0.21314z"/>
<path d="m31.043 204.73c-0.43881-0.55953-0.42633-0.57201 0.1332-0.1332 0.33955 0.26629 0.61736 0.54411 0.61736 0.61736 0 0.29035-0.2897 0.10347-0.75056-0.48416z"/>
<path d="m235.7 87.383c0-0.07326 0.27781-0.35107 0.61736-0.61736 0.55953-0.43881 0.57201-0.42633 0.1332 0.13319-0.46086 0.58764-0.75056 0.77452-0.75056 0.48417z"/>
<path d="m167.61 205.21c0-0.0733 0.27781-0.35107 0.61736-0.61736 0.55952-0.43881 0.572-0.42633 0.13319 0.1332-0.46086 0.58763-0.75055 0.77451-0.75055 0.48416zm-163.69-164.39c0-0.07325 0.27781-0.35107 0.61736-0.61736 0.55953-0.43881 0.572-0.42633 0.13319 0.1332-0.46086 0.58764-0.75056 0.77452-0.75056 0.48417z"/>
<path d="m194.92 39.803-0.67203-0.79375 0.79375 0.67204c0.43656 0.36962 0.79375 0.72681 0.79375 0.79375 0 0.28231-0.28392 0.07389-0.91547-0.67204z"/>
<path d="m5.3349 39.405c0-0.07325 0.27781-0.35107 0.61736-0.61736 0.55953-0.43881 0.572-0.42633 0.13319 0.1332-0.46086 0.58764-0.75056 0.77452-0.75056 0.48417z"/>
<path d="m195.13 229.2c0-0.0733 0.27781-0.35107 0.61736-0.61736 0.55953-0.43881 0.57201-0.42633 0.1332 0.13319-0.46086 0.58764-0.75056 0.77452-0.75056 0.48417zm34.153-33.974c0.25466-0.1019 0.55893-0.0894 0.67616 0.0278 0.11722 0.11722-0.0911 0.2006-0.46303 0.18528-0.41096-0.0169-0.49455-0.10052-0.21313-0.21313z"/>
<path d="m70.246 108.2c0-0.0733 0.27781-0.35107 0.61736-0.61736 0.55953-0.43881 0.572-0.42633 0.1332 0.13319-0.46086 0.58764-0.75056 0.77452-0.75056 0.48417zm75.318-108.52c0.35118-0.38806 0.71789-0.70556 0.81491-0.70556 0.097 0-0.11095 0.3175-0.46214 0.70556-0.35118 0.38806-0.71789 0.70556-0.81491 0.70556-0.097 0 0.11095-0.3175 0.46214-0.70556z"/>
<path d="m23.913 308.29c-3.1118-0.85852-4.9665-4.3239-4.9692-9.2847-0.0021-3.9104 0.9297-6.6555 4.7468-13.984 1.7546-3.3686 4.5545-8.8615 6.2219-12.207l3.0316-6.0819 0.31765-3.9722c0.8206-10.262 0.84889-9.2088-0.28014-10.426-0.55682-0.60045-4.108-3.1379-7.8916-5.6387-8.9522-5.9172-13.051-9.2286-19.95-16.119-8.8328-8.8213-14.661-16.562-21.854-29.025-1.7462-3.0256-3.5719-5.7876-4.0569-6.1378-0.78888-0.56953-1.2542-0.60261-4.4097-0.31349-8.8536 0.81118-8.9377 0.83807-22.429 7.1739-10.438 4.9019-11.761 5.3378-16.2 5.3374-4.0365-3e-4 -6.4114-0.87486-8.2689-3.045-3.9457-4.6097-1.168-11.219 6.3829-15.186 1.3708-0.72031 5.6-2.2256 9.6588-3.4377 12.06-3.6017 14.927-4.5851 16.257-5.5774 0.70144-0.52324 2.2096-1.6475 3.3514-2.4983 2.7783-2.0702 5.7687-4.967 6.1638-5.9709 0.21282-0.54082 0.14286-1.6091-0.20793-3.175-1.2222-5.4558-3.3448-19.335-3.7327-24.409-0.50717-6.632-0.23885-19.455 0.54256-25.929 0.67046-5.5548 2.6946-15.618 4.1303-20.535 0.64114-2.1957 0.93853-3.8025 0.76176-4.1158-0.54105-0.95877-7.3251-6.9692-9.3864-8.3161-2.1235-1.3875-6.7409-3.0473-17.715-6.3678-6.1356-1.8566-11.042-3.9101-13.109-5.4872-0.63927-0.48759-1.6004-1.6341-2.1358-2.5478-0.84324-1.4389-0.97364-2.0393-0.97428-4.486-6e-4 -2.2457 0.16055-3.1279 0.78603-4.3036 1.5154-2.8485 4.5808-4.3464 8.875-4.3368 4.6562 0.01044 8.4517 1.4188 17.422 6.4648 10.316 5.8027 12.509 6.4892 21.153 6.6231 3.5687 0.05527 4.2465-0.02515 4.8552-0.57596 0.38908-0.35211 2.475-3.2728 4.6353-6.4905 6.3304-9.4287 11.218-15.473 18.816-23.265 8.1325-8.3416 12.261-11.662 21.915-17.627 3.5152-2.1718 6.8321-4.3573 7.3709-4.8566l0.97956-0.90782-0.2142-5.8789c-0.11781-3.2334-0.38733-6.5881-0.59894-7.455-0.54716-2.2416-2.6102-6.5064-6.2646-12.951-5.8102-10.246-7.1953-13.501-7.2282-16.99-0.05458-5.7942 3.5491-9.7272 8.9128-9.7272 4.219 0 7.4612 2.4464 9.7054 7.3231 0.6387 1.3879 2.7856 7.5043 4.7709 13.592l3.6097 11.069 2.5297 3.3954c1.3914 1.8675 3.1993 4.3061 4.0176 5.4191 0.81833 1.113 1.8415 2.1103 2.2738 2.2161 0.43225 0.10579 1.9765-0.13757 3.4317-0.5408 1.4552-0.40323 6.3765-1.5221 10.936-2.4864 11.259-2.3812 23.331-3.6662 31.75-3.3799 8.787 0.29883 21.574 2.4708 32.757 5.5643 1.4272 0.39478 2.9406 0.63102 3.363 0.52498 1.0337-0.25944 9.8629-9.6717 10.805-11.519 0.9196-1.8026 3.3413-8.3715 6.6777-18.113 3.5191-10.275 4.6198-12.217 8.072-14.24 2.0997-1.2305 5.3869-1.2816 8.0029-0.1244 3.4816 1.5401 4.9101 3.7791 4.8611 7.6191-0.0385 3.0142-0.57112 4.5366-4.2584 12.171-1.5463 3.2015-4.1258 8.9165-5.7323 12.7-2.6938 6.3446-2.9445 7.1396-3.2247 10.231-0.16712 1.8433-0.46022 4.214-0.65133 5.2683-0.66133 3.6483-0.50927 4.5071 0.97544 5.5087 0.72761 0.49089 4.8948 3.2527 9.2604 6.1375 10.044 6.6369 14.247 10.01 21.545 17.292 6.4558 6.4419 10.361 11.289 16.352 20.297 2.1939 3.2985 4.4119 6.4171 4.929 6.9302 0.51706 0.51314 2.3243 1.545 4.016 2.2931 5.9998 2.653 8.3925 2.0351 28.404-7.335 10.594-4.9602 10.867-5.0534 14.759-5.0258 2.8569 0.02021 3.6687 0.15962 5.0973 0.87524 2.2357 1.1199 3.5202 2.8148 4.2244 5.5739 1.0268 4.0235-0.12712 7.4596-3.1855 9.4854-3.7405 2.4776-11.863 5.7053-21.495 8.5419-6.0531 1.7825-9.3903 3.2978-11.728 5.3248-0.98843 0.85717-2.7098 2.1141-3.8253 2.7932s-2.5808 1.9059-3.2563 2.7263c-1.5156 1.8407-1.5237 1.7277 0.88246 12.267 2.9765 13.037 3.6977 19.201 3.7146 31.75 0.0131 9.7029-0.52247 15.314-2.4338 25.501-1.7793 9.4828-1.7495 9.185-1.0483 10.487 0.33734 0.62641 1.7503 1.9824 3.14 3.0133 1.3896 1.0309 3.3998 2.5373 4.4669 3.3476 3.5679 2.709 6.4598 3.8749 16.536 6.6665 11.293 3.1288 16.234 5.1129 19.33 7.7632 4.4531 3.8117 4.0976 10.923-0.70946 14.194-4.7884 3.2578-9.7787 2.2287-24.22-4.9946-4.7537-2.3777-10.151-4.9247-11.994-5.66-3.161-1.261-3.7021-1.3615-9.525-1.7685-4.6204-0.32293-6.3955-0.33087-7.0556-0.0316-1.024 0.46433-1.5878 1.3172-6.6755 10.098-5.503 9.4972-9.5915 15.008-16.751 22.578-8.4046 8.8864-17.686 16.714-26.94 22.719-5.0113 3.252-4.8712 2.9406-4.2184 9.3798 0.45271 4.4654 0.70012 5.6316 1.6051 7.5655 0.98808 2.1115 7.2116 13.294 10.615 19.074 4.3679 7.4171 5.3659 14.757 2.4822 18.255-2.1752 2.6389-6.8194 3.9865-10.607 3.0778-1.535-0.36826-2.2564-0.82257-3.8529-2.4264-2.5531-2.5648-4.5736-6.7294-7.2044-14.85-2.9939-9.2411-3.6984-11.247-4.824-13.738-1.1774-2.6051-4.091-6.305-8.3101-10.553-3.5042-3.528-2.893-3.4818-11.259-0.85166-3.4208 1.0755-7.0012 1.9491-8.9958 2.1949-1.8224 0.22463-5.7741 0.83072-8.7815 1.3469-5.1759 0.88831-6.0806 0.9375-16.933 0.92066-10.001-0.0155-12.114-0.11735-16.546-0.79722-5.8195-0.89286-15.218-2.7855-21.342-4.2976-2.3082-0.57-4.6292-1.0364-5.1577-1.0364-0.78787 0-1.6766 0.80981-4.9361 4.4979-4.877 5.5183-5.4879 6.7352-9.8701 19.662-1.775 5.236-3.8739 10.844-4.6642 12.461-1.6725 3.4234-4.2307 6.394-6.3739 7.4014-1.8772 0.88237-4.9389 1.2083-6.7241 0.71582zm81.28-75.975c10.994-1.032 20.37-2.758 21.585-3.9731 0.61974-0.61974 0.61613-0.77621-0.10795-4.6765-1.7329-9.334-1.5088-8.7053-4.9857-13.99-3.7499-5.7-4.6002-7.4741-5.7454-11.987-0.67766-2.6705-1.2355-3.9298-2.7578-6.225-2.8395-4.2813-3.8145-6.1453-6.7641-12.931-1.4758-3.3955-2.9985-6.4901-3.3836-6.8769-0.55547-0.55789-1.2846-0.72982-3.5268-0.83165-4.895-0.22229-4.8208-0.30015-8.4326 8.8602-1.8048 4.5775-2.4867 5.8881-3.8544 7.4083-0.91392 1.0158-2.424 3.0845-3.3558 4.597-1.3781 2.237-1.7502 3.1967-1.9948 5.1446-0.43594 3.4718-1.4546 5.9053-4.9911 11.924-3.3381 5.6808-3.3581 5.7379-5.4965 15.701-0.56455 2.6302-0.56124 2.7338 0.11113 3.4801 0.38115 0.42306 1.0899 0.92105 1.5749 1.1066 1.8534 0.70915 11.26 2.7112 14.464 3.0784 1.8433 0.21125 3.8276 0.4396 4.4097 0.50746 2.655 0.30951 7.9336 0.18392 13.251-0.31528zm45.95-14.752c2.2458-0.93836 9.3036-5.855 13.121-9.1402 6.5928-5.6743 11.394-11.6 17.217-21.251 2.9946-4.963 3.1766-5.7654 1.6125-7.1056-0.64559-0.55319-1.8137-1.6408-2.5958-2.4169-2.9217-2.8992-6.6837-4.9529-11.932-6.5137-6.5615-1.9514-7.9713-2.5382-11.936-4.9687-3.0597-1.8756-3.7284-2.1368-6.7028-2.6192-1.8172-0.29471-4.2049-0.53648-5.306-0.53726-1.6411-1e-3 -3.2455-0.4784-8.8994-2.6472-3.7935-1.4552-7.1817-2.6458-7.5293-2.6458-0.98548 0-3.1121 1.6093-3.978 3.0103-1.1188 1.8103-0.84647 3.054 2.1387 9.7666 1.4049 3.1591 2.7694 6.6617 3.0322 7.7835 0.2628 1.1218 0.79821 2.6676 1.1898 3.4352 0.39161 0.76762 0.81453 2.3764 0.93982 3.5752 0.2057 1.968 0.39187 2.3607 1.9187 4.0467 2.2238 2.4556 2.3442 2.7177 4.8542 10.566 2.3378 7.3097 3.0282 8.6274 7.4706 14.259 2.3078 2.9257 3.248 3.8443 3.9628 3.8721 0.15175 6e-3 0.79204-0.20493 1.4229-0.46851zm-98.515-4.4557c4.3515-5.5269 5.3982-7.4468 6.1241-11.234 1.2413-6.4748 2.4152-9.4629 5.026-12.794 1.1606-1.4807 1.628-2.4514 1.8683-3.8806 0.17627-1.0483 0.62443-2.7791 0.99591-3.8462 0.37148-1.0672 0.78835-2.5753 0.9264-3.3514 0.13804-0.77611 1.7601-4.6303 3.6045-8.5648 3.1836-6.7912 3.3333-7.2152 2.9532-8.3669-0.22022-0.66727-0.87073-1.609-1.4456-2.0927-1.9585-1.648-2.7213-1.5508-9.4928 1.2096-5.8213 2.3731-7.7087 2.924-15.873 4.6333-3.548 0.7428-4.1555 1.0314-6.7449 3.204-2.1055 1.7665-4.1287 2.5116-10.684 3.9345-5.0901 1.1049-5.5011 1.2587-8.1648 3.0555-1.5427 1.0406-3.8192 2.8813-5.0588 4.0904-2.0865 2.035-2.2369 2.2839-2.0238 3.3491 0.29125 1.4562 4.0294 7.348 8.1428 12.834 5.2277 6.9722 11.031 12.419 20.658 19.39 5.1399 3.7215 5.0039 3.7447 9.1886-1.5703zm-42.769-54.848c1.35-0.28399 3.519-0.68638 4.8199-0.8942 2.6612-0.42513 5.1945-1.606 9.9911-4.6573 4.5649-2.904 5.9361-3.4211 9.9773-3.7628 2.9948-0.25324 3.6342-0.42357 4.6312-1.2338 4.6534-3.7816 8.7859-6.0177 15.785-8.5412 2.6126-0.94201 5.0335-1.9961 5.3799-2.3424 0.50004-0.50004 0.62969-1.214 0.62969-3.4679 0-3.5251-0.3759-3.9815-4.5984-5.583-1.6425-0.62298-4.4516-1.697-6.2425-2.3866-1.7909-0.68967-5.2971-2.4762-7.7916-3.97-3.7589-2.251-5.028-2.8219-7.4119-3.3341-4.1791-0.89805-8.2258-2.6495-12.681-5.4883l-3.92-2.4981-5.3726-1.0619c-2.9549-0.58403-5.6352-1.0619-5.9563-1.0619-1.296 0-2.0952 1.5741-3.322 6.5433-3.1958 12.945-3.4433 22.83-0.89149 35.614 1.8591 9.3131 1.7787 9.2195 6.9736 8.1267zm183.29-0.5899c1.0084-0.45947 1.6854-1.9607 2.7453-6.0883 0.6138-2.3904 0.76192-4.2779 0.90265-11.503 0.18792-9.6481-0.20864-15.826-1.513-23.569-0.99168-5.8873-1.8008-8.048-3.1398-8.3841-1.3781-0.34587-5.1723 0.14904-9.8472 1.2844-3.7579 0.91269-4.7121 1.3202-9.3486 3.9924-5.4863 3.162-7.0229 3.8033-10.648 4.4443-1.6675 0.29485-2.9027 0.81508-4.6172 1.9446-1.9353 1.275-7.3934 3.992-18.172 9.0459-0.8044 0.37717-1.876 1.0689-2.3812 1.5372-0.80798 0.7488-0.9187 1.1274-0.9187 3.1416 0 3.3924 0.32692 3.6451 7.7611 5.9989 5.7635 1.8248 6.4665 2.1449 10.583 4.8186 2.4254 1.5751 4.8066 3.0301 5.2917 3.2332 0.48506 0.2031 2.2566 0.47757 3.9367 0.60993 3.5204 0.27733 5.6203 1.1676 10.842 4.5962 1.747 1.1472 3.6578 2.3347 4.2461 2.6389 1.5202 0.78613 8.9477 2.3014 12.797 2.6106 0.33042 0.0265 0.99649-0.13204 1.4802-0.35242zm-91.581-18.089c2.3876-1.2473 3.6484-3.4747 3.6487-6.4458 2.1e-4 -2.0122-0.37479-2.9587-1.769-4.4651-1.3774-1.4882-2.6066-1.997-4.8249-1.997-3.5113 0-6.0657 1.9732-6.8644 5.3024-0.71229 2.9692 0.96517 6.4198 3.7002 7.6115 1.4185 0.61806 4.9215 0.61459 6.1095-6e-3zm-31.004-31.616c1.8765-1.8211 2.8497-3.4271 2.8514-4.7055 7.06e-4 -0.55696-1.6485-4.8432-3.6649-9.525-2.0405-4.7375-3.9511-9.745-4.3086-11.292-0.41536-1.7975-1.0954-3.4804-1.9244-4.7625-0.83824-1.2964-2.0466-4.3031-3.4906-8.6855-1.2147-3.6865-2.6144-7.3378-3.1105-8.1139-2.1465-3.3582-6.5538-8.5976-7.4138-8.8134-1.4364-0.36052-4.6381 1.4859-10.827 6.2438-9.489 7.2954-14.486 12.509-19.829 20.689-3.0121 4.6112-3.7642 6.154-3.4629 7.1032 0.31066 0.97881 2.5938 2.8363 5.3272 4.334 1.3389 0.73364 3.0694 1.8039 3.8455 2.3783 1.1102 0.82168 2.5773 1.311 6.8792 2.2944 6.1458 1.4049 9.3198 2.7616 12.347 5.2777 1.0672 0.8869 2.3372 1.6908 2.8222 1.7865 5.4818 1.081 9.9177 2.4929 14.817 4.716 3.0074 1.3647 5.9649 2.485 6.572 2.4896 0.81841 6e-3 1.4831-0.35958 2.5697-1.4141zm65.239-1.9345c6.878-2.7266 10.761-3.9012 14.16-4.2833 2.3092-0.25959 3.5044-0.81184 5.6841-2.6262 2.536-2.111 4.6854-2.9902 10.197-4.1711 5.8479-1.253 6.0715-1.3329 9.1722-3.2803 5.3572-3.3645 6.0557-3.8805 6.7138-4.9599 0.971-1.5925 0.88371-2.2649-0.70311-5.4154-3.109-6.1728-14.03-18.342-21.371-23.813-4.5898-3.4208-9.5773-6.4971-11.063-6.8233-1.1017-0.24198-1.2954-0.12962-3.1148 1.8073-4.6118 4.9097-5.6045 6.7762-7.8127 14.689-1.5984 5.7275-2.5113 7.8054-4.4477 10.123-1.7021 2.0373-2.1602 3.0124-2.4069 5.1229-0.27264 2.333-2.3909 9.1583-4.1816 13.474-3.1206 7.5205-3.2388 8.0494-2.2336 9.9933 0.63788 1.2335 2.8503 2.8148 3.9383 2.8148 0.42883 0 3.7895-1.1931 7.4682-2.6514zm-33.363-11.87c0.38547-0.51654 1.6282-3.2153 2.7617-5.9972 2.3378-5.7378 2.8513-6.7463 4.192-8.2331 1.7403-1.9298 5.2755-7.6343 5.4318-8.7649 0.93297-6.7473 1.3794-7.9057 4.9561-12.861 2.7351-3.7892 3.7079-5.7415 3.7266-7.4783 7e-3 -0.6791 0.24325-2.1872 0.52435-3.3514 0.2811-1.1642 0.51674-2.9388 0.52365-3.9436 0.0188-2.7393-0.88167-3.4035-6.5686-4.8451-8.8674-2.2478-18.027-3.0934-25.339-2.3395-4.9121 0.50646-17.483 2.9197-19.58 3.7589-2.1313 0.85276-2.2514 1.322-1.4105 5.5093 1.6184 8.0591 2.2475 9.6885 5.7562 14.909 2.6383 3.9257 3.3242 5.6935 3.6296 9.3554 0.17435 2.0906 0.44095 3.1447 0.98031 3.8758 0.40746 0.55232 2.1275 2.8133 3.8224 5.0245 2.8481 3.7157 3.2319 4.4193 5.0667 9.2882 1.0918 2.8974 2.1364 5.5547 2.3214 5.9052 0.54457 1.0321 1.6788 1.2962 5.1913 1.209 3.1333-0.07785 3.3518-0.13345 4.0145-1.0215z"/>
</g>
</svg>
