<?xml version="1.0" encoding="UTF-8"?>
<svg width="100mm" height="100mm" version="1.1" viewBox="0 0 100 100" xmlns="http://www.w3.org/2000/svg">
<path d="m49.829 98.604c-0.41322-0.18706-0.83999-0.70792-0.91336-1.1147-0.0326-0.18073-0.0459-3.8262-0.02957-8.1011 0.0293-7.6676 0.03254-7.7763 0.24007-8.0542 0.37704-0.50493 0.73391-0.70246 1.2691-0.70246 0.53521 0 0.8921 0.19755 1.2691 0.7025 0.20831 0.27901 0.21037 0.36052 0.21037 8.3273 0 7.9668-0.0021 8.0483-0.21037 8.3273-0.48361 0.64774-1.2191 0.89432-1.8353 0.61533zm-23.506-6.4108c-0.53987-0.28232-0.82381-0.76274-0.82381-1.3939 0-0.40174 0.38576-1.1151 3.8353-7.0928 2.1094-3.6554 3.9345-6.7538 4.0558-6.8854 0.7295-0.7917 1.9544-0.66902 2.495 0.24989 0.47382 0.80544 0.54826 0.64422-3.7113 8.0371-2.7708 4.809-3.9631 6.788-4.2011 6.973-0.47435 0.36878-1.0803 0.40997-1.6498 0.11215zm46.756 0.05856c-0.17819-0.08788-0.39151-0.23606-0.47405-0.32928-0.08254-0.09323-1.8843-3.1752-4.0039-6.8487-4.2441-7.3555-4.1707-7.1967-3.6965-8.0028 0.54057-0.91891 1.7655-1.0416 2.495-0.24989 0.12126 0.1316 1.9464 3.23 4.0558 6.8854 3.4496 5.9777 3.8353 6.6911 3.8353 7.0928 0 0.63199-0.28397 1.1125-0.81992 1.3873-0.52304 0.2682-0.94032 0.28773-1.3917 0.06515zm-63.803-16.594c-0.73737-0.50332-0.92344-1.5438-0.39782-2.2245 0.16904-0.21892 2.3286-1.52 6.977-4.2034 7.411-4.2782 7.2468-4.2022 8.0519-3.7286 1.012 0.59532 1.0344 1.9255 0.04482 2.6546-0.18716 0.13788-3.2607 1.9339-6.83 3.9911-6.1671 3.5544-6.5151 3.7404-6.9996 3.7404-0.3611 0-0.60803-0.06699-0.84621-0.22957zm74.228-3.6077c-3.6476-2.1076-6.7398-3.9316-6.8714-4.0532-0.7916-0.73156-0.6691-1.955 0.24989-2.4956 0.80506-0.47359 0.6409-0.54961 8.0519 3.7286 4.6484 2.6834 6.8079 3.9845 6.977 4.2034 0.33446 0.43314 0.39395 1.1618 0.13371 1.6378-0.29495 0.53959-0.76789 0.81675-1.3884 0.81367-0.49739-0.0025-0.81608-0.17333-7.1527-3.8347zm-36.068 3.4811c-8.2005-0.99504-15.343-5.7776-19.353-12.959-4.2662-7.6398-4.2662-17.154 0-24.794 2.6607-4.7647 6.8915-8.6586 11.803-10.863 3.6232-1.6262 7.2626-2.3478 11.173-2.2151 4.0793 0.13847 7.6151 1.0457 11.07 2.8406 6.6985 3.4795 11.526 9.7611 13.16 17.125 0.53371 2.4048 0.74737 5.6612 0.51882 7.9075-0.60894 5.9851-3.0312 11.187-7.1905 15.442-4.1593 4.2551-9.3968 6.818-15.365 7.5184-1.5242 0.17888-4.3315 0.17766-5.8165-0.0025zm34.227-23.866c-0.36892-0.16186-0.83668-0.6895-0.92571-1.0442-0.15146-0.60348 0.12972-1.2779 0.71498-1.7148 0.27901-0.20831 0.36052-0.21037 8.3273-0.21037s8.0483 0.0021 8.3273 0.21037c0.45973 0.34324 0.67716 0.71349 0.72584 1.236 0.05115 0.54903-0.18181 1.0027-0.7195 1.4012-0.2858 0.2118-0.34924 0.21362-8.2136 0.23594-6.4331 0.01826-7.9842-0.0032-8.2367-0.11402zm-78.769-0.10203c-0.70268-0.30828-1.0954-1.1405-0.86609-1.8353 0.14784-0.44795 0.70951-0.95181 1.1496-1.0312 0.18358-0.03313 3.8314-0.04687 8.1063-0.03054 7.6676 0.0293 7.7763 0.03254 8.0542 0.24007 0.50493 0.37704 0.70246 0.73391 0.70246 1.2691 0 0.53519-0.19753 0.89206-0.70246 1.2691-0.27825 0.20778-0.37935 0.21065-8.2073 0.23286-6.4331 0.01826-7.9842-0.0032-8.2367-0.11402zm19.329-16.784c-0.30252-0.16242-3.3738-1.9265-6.825-3.9203-4.3104-2.4901-6.3516-3.7242-6.5198-3.9418-0.33447-0.4329-0.39396-1.1615-0.13371-1.6377 0.29178-0.5338 0.76854-0.81626 1.3777-0.81626 0.48453 0 0.83256 0.18598 6.9996 3.7404 3.5694 2.0572 6.6429 3.8532 6.83 3.9911 0.98959 0.72901 0.96692 2.0686-0.04482 2.6486-0.54045 0.30984-1.0217 0.29154-1.6841-0.06405zm54.66 0.07c-1.012-0.59532-1.0344-1.9255-0.04482-2.6546 0.18716-0.13788 3.2607-1.9339 6.83-3.9911 6.1671-3.5544 6.5151-3.7404 6.9996-3.7404 0.6092 0 1.086 0.28246 1.3777 0.81626 0.26024 0.47609 0.20075 1.2047-0.13371 1.6378-0.16904 0.21892-2.3286 1.52-6.977 4.2034-7.411 4.2782-7.2468 4.2022-8.0519 3.7286zm-43.082-10.99c-0.17588-0.10725-0.43227-0.34813-0.56975-0.53529-0.13748-0.18716-1.9335-3.2621-3.9911-6.8333-3.3621-5.8352-3.7411-6.5382-3.7411-6.9398 0-1.3031 1.4679-2.0638 2.4736-1.2819 0.23796 0.185 1.4302 2.164 4.2011 6.973 4.2596 7.3929 4.1852 7.2317 3.7113 8.0371-0.42588 0.72396-1.4024 0.99577-2.0841 0.5801zm31.693 0.0066c-0.19554-0.10405-0.46075-0.36806-0.58936-0.58668-0.47382-0.80544-0.54826-0.64422 3.7113-8.0371 2.7708-4.809 3.9631-6.788 4.2011-6.973 1.0057-0.78188 2.4736-0.02126 2.4736 1.2817 0 0.40174-0.38576 1.1151-3.8353 7.0928-2.1094 3.6554-3.9345 6.7538-4.0558 6.8854-0.50312 0.54602-1.2608 0.67992-1.9056 0.3368zm-15.906-4.3167c-0.19125-0.13127-0.44378-0.3683-0.56118-0.52674-0.21233-0.28657-0.21345-0.33002-0.21345-8.3336 0-8.0036 0.0011-8.0471 0.21345-8.3336 0.39842-0.53771 0.8521-0.77069 1.4012-0.71954 0.5225 0.048679 0.89275 0.26611 1.236 0.72584 0.20831 0.27901 0.21037 0.36052 0.21037 8.3273 0 7.9668-0.0021 8.0483-0.21037 8.3273-0.34324 0.45973-0.71349 0.67716-1.236 0.72584-0.39716 0.037-0.55942-2.05e-4 -0.83998-0.1928z" stroke-width=".10203"/>
</svg>
